<svg width="70" height="70" fill="none" xmlns="http://www.w3.org/2000/svg"><g clip-path="url(#a)"><path d="M69.97 48.34 51.5 29.74l2.05-10.1c.53.2 1.1.31 1.66.32h.02a4.72 4.72 0 1 0-4.4-3.14l-10.85 1.32L22.28.35a1.17 1.17 0 0 0-.82-.35c-.3 0-.6.12-.82.34l-3.3 3.29c-.46.46-.46 1.2 0 1.65l1.78 1.8a32.69 32.69 0 0 0 5.5 38.64c.1.1.2.16.33.22-.08.4-.11.8-.12 1.2v13.53h-14A5.84 5.84 0 0 0 5 66.5v2.33c0 .65.52 1.17 1.17 1.17h53.66c.65 0 1.17-.52 1.17-1.17V66.5a5.84 5.84 0 0 0-5.83-5.83h-14v-6a32.48 32.48 0 0 0 22.07-3.2l1.79 1.8c.21.22.5.35.82.35.3 0 .6-.13.82-.34l3.3-3.3c.46-.45.46-1.19 0-1.64Zm-16.39-34.7a2.33 2.33 0 1 1 1.65 3.98h-.01a2.33 2.33 0 0 1-1.63-3.99Zm-2.74 7.66-1.31 6.44-2.57-2.58 3.88-3.86Zm-1.33-1.97-4.2 4.17-3.25-3.26 7.45-.91ZM55.17 63a3.5 3.5 0 0 1 3.5 3.5v1.17H7.33V66.5a3.5 3.5 0 0 1 3.5-3.5h44.34Zm-16.34-4.67v2.34H27.17v-2.34h11.66ZM27.17 56v-8.87C27.17 44.3 29.78 42 33 42s5.83 2.3 5.83 5.13V56H27.17Zm14-3.71v-5.16c0-4.11-3.67-7.46-8.17-7.46a8.31 8.31 0 0 0-7.18 3.9 30.34 30.34 0 0 1-4.98-34.75l40.69 40.93a30.23 30.23 0 0 1-20.36 2.54Zm24.7-1.5-1.65-1.65L21.45 6.12 19.8 4.46l1.65-1.64 17.36 17.45.02.02 28.69 28.86-1.66 1.64Z" fill="#212121"/><path d="M33.01 44.33H33a3.5 3.5 0 1 0-.01 7H33a3.5 3.5 0 0 0 .01-7Zm.82 4.33a1.17 1.17 0 1 1-.83-2 1.17 1.17 0 0 1 .82 2Z" fill="#2196F3"/></g><defs><clipPath id="a"><path fill="#fff" d="M0 0h70v70H0z"/></clipPath></defs></svg>